<?xml version="1.0" encoding="UTF-8" standalone="no"?>
<svg
   width="24"
   height="24"
   viewBox="0 0 24 24"
   fill="none"
   version="1.1"
   id="svg1"
   sodipodi:docname="calendar.svg"
   inkscape:version="1.4.2 (f4327f4, 2025-05-13)"
   xmlns:inkscape="http://www.inkscape.org/namespaces/inkscape"
   xmlns:sodipodi="http://sodipodi.sourceforge.net/DTD/sodipodi-0.dtd"
   xmlns="http://www.w3.org/2000/svg"
   xmlns:svg="http://www.w3.org/2000/svg">
  <defs
     id="defs1" />
  <sodipodi:namedview
     id="namedview1"
     pagecolor="#ffffff"
     bordercolor="#000000"
     borderopacity="0.25"
     inkscape:showpageshadow="2"
     inkscape:pageopacity="0.0"
     inkscape:pagecheckerboard="0"
     inkscape:deskcolor="#d1d1d1"
     inkscape:zoom="33.625"
     inkscape:cx="11.98513"
     inkscape:cy="12"
     inkscape:window-width="1920"
     inkscape:window-height="1009"
     inkscape:window-x="-8"
     inkscape:window-y="-8"
     inkscape:window-maximized="1"
     inkscape:current-layer="svg1" />
  <path
     style="baseline-shift:baseline;display:inline;overflow:visible;vector-effect:none;fill:#98a2b3;stroke-linecap:round;stroke-linejoin:round;enable-background:accumulate;stop-color:#000000;stop-opacity:1;opacity:1"
     d="M 8,1 A 1,1 0 0 0 7,2 V 3.0136719 C 5.8407937,3.0153782 4.9557988,3.0420861 4.1835937,3.4355469 3.4310541,3.8189823 2.8189823,4.4310541 2.4355469,5.1835937 1.9482957,6.1398716 2,7.1206212 2,8.8007813 V 10 17.199219 c 0,1.6802 -0.051648,2.660917 0.4355469,3.617187 0.3834435,0.752569 0.9955189,1.364644 1.7480468,1.748047 C 5.1398789,23.051738 6.1206212,23 7.8007812,23 h 8.3984378 c 1.6802,0 2.660909,0.05168 3.617187,-0.435547 0.752557,-0.383411 1.364636,-0.99549 1.748047,-1.748047 C 22.051681,19.860128 22,18.879419 22,17.199219 V 10 8.8007813 C 22,7.1206212 22.051738,6.1398789 21.564453,5.1835937 21.18105,4.4310658 20.568975,3.8189904 19.816406,3.4355469 19.044207,3.042132 18.159217,3.0153858 17,3.0136719 V 2 A 1,1 0 0 0 16,1 1,1 0 0 0 15,2 V 3 H 9 V 2 A 1,1 0 0 0 8,1 Z m 1,4 h 6 v 1 a 1,1 0 0 0 1,1 1,1 0 0 0 1,-1 V 5.0644531 c 0.812892,0.025295 1.677631,0.036827 1.908203,0.1542969 0.376431,0.1917965 0.68125,0.4965948 0.873047,0.8730469 C 19.947965,6.4189717 20,7.1206212 20,8.8007813 V 9 H 4 V 8.8007813 C 4,7.1206212 4.0520412,6.418979 4.21875,6.0917969 4.4105546,5.7153565 4.7153565,5.4105546 5.0917969,5.21875 5.3222654,5.1013196 6.1870967,5.0897553 7,5.0644531 V 6 A 1,1 0 0 0 8,7 1,1 0 0 0 9,6 Z m -5,6 h 16 v 6.199219 c 0,1.6802 -0.05198,2.381662 -0.21875,2.708984 -0.191789,0.376443 -0.496604,0.681258 -0.873047,0.873047 C 18.580881,20.948022 17.879419,21 16.199219,21 H 7.8007812 C 6.1206213,21 5.4189717,20.947965 5.0917969,20.78125 4.7153448,20.589453 4.4105465,20.284634 4.21875,19.908203 4.0519843,19.580874 4,18.879419 4,17.199219 Z"
     id="path1" />
</svg>
