<?xml version="1.0" encoding="UTF-8" standalone="no"?>
<svg
   width="20"
   height="20"
   viewBox="0 0 20 20"
   fill="none"
   version="1.1"
   id="svg1"
   sodipodi:docname="copy.svg"
   inkscape:version="1.4.2 (f4327f4, 2025-05-13)"
   xmlns:inkscape="http://www.inkscape.org/namespaces/inkscape"
   xmlns:sodipodi="http://sodipodi.sourceforge.net/DTD/sodipodi-0.dtd"
   xmlns="http://www.w3.org/2000/svg"
   xmlns:svg="http://www.w3.org/2000/svg">
  <sodipodi:namedview
     id="namedview1"
     pagecolor="#ffffff"
     bordercolor="#000000"
     borderopacity="0.25"
     inkscape:showpageshadow="2"
     inkscape:pageopacity="0.0"
     inkscape:pagecheckerboard="0"
     inkscape:deskcolor="#d1d1d1"
     inkscape:zoom="40.35"
     inkscape:cx="9.9876084"
     inkscape:cy="10"
     inkscape:window-width="1920"
     inkscape:window-height="1009"
     inkscape:window-x="-8"
     inkscape:window-y="-8"
     inkscape:window-maximized="1"
     inkscape:current-layer="svg1" />
  <g
     clip-path="url(#clip0_116_1763)"
     id="g1">
    <path
       style="baseline-shift:baseline;display:inline;overflow:visible;vector-effect:none;fill:#344054;stroke-linecap:round;stroke-linejoin:round;enable-background:accumulate;stop-color:#000000;stop-opacity:1;opacity:1"
       d="m 4.3339844,0.83398438 c -0.93342,0 -1.516129,-0.0437163 -2.1347656,0.27148432 C 1.7288923,1.3451086 1.3450999,1.7289245 1.1054687,2.1992188 0.79024791,2.8178609 0.83398438,3.4005644 0.83398438,4.3339844 V 10 c -10e-9,0.7766 -0.0326772,1.25473 0.18945312,1.791016 0.2536012,0.612265 0.7411133,1.097982 1.3535156,1.351562 0.5363651,0.222223 1.0124925,0.191406 1.7890625,0.191406 A 0.83333498,0.83333498 0 0 0 5,12.5 0.83333498,0.83333498 0 0 0 4.1660156,11.666016 c -0.77657,0 -1.0741756,-0.03092 -1.1503906,-0.0625 C 2.8112673,11.518896 2.6491719,11.356879 2.5644531,11.152344 2.5328435,11.076029 2.5,10.7766 2.5,10 V 4.3339844 C 2.5,3.4005644 2.5436977,3.049476 2.5917969,2.9550781 2.6717458,2.7981724 2.7981846,2.671737 2.9550781,2.5917969 3.0494815,2.5436976 3.4005644,2.5 4.3339844,2.5 H 10 c 0.7766,0 1.076088,0.032868 1.152344,0.064453 0.204418,0.084686 0.366443,0.2447184 0.451172,0.4492188 0.03158,0.076289 0.0625,0.3757737 0.0625,1.1523437 A 0.83333498,0.83333498 0 0 0 12.5,5 0.83333498,0.83333498 0 0 0 13.333984,4.1660156 c 0,-0.77657 0.03061,-1.2527915 -0.191406,-1.7890625 C 12.888907,1.7646935 12.403198,1.2770516 11.791016,1.0234375 11.254671,0.80128259 10.7766,0.83398438 10,0.83398438 Z M 10.167969,6.6660156 c -0.9334302,0 -1.5180768,-0.041783 -2.136719,0.2734375 C 7.5609557,7.1790842 7.179093,7.5609235 6.9394531,8.03125 6.6242524,8.6498866 6.6679687,9.2326456 6.6679687,10.166016 v 5.5 c 0,0.9335 -0.043731,1.516134 0.2714844,2.134765 0.2396278,0.470288 0.6214688,0.854087 1.0917969,1.09375 0.6186091,0.3151 1.2032888,0.271485 2.136719,0.271485 h 5.5 c 0.9334,0 1.516162,0.04363 2.134765,-0.271485 0.469889,-0.239439 0.852103,-0.622065 1.091797,-1.091797 v -0.002 c 0.31439,-0.618038 0.273438,-1.202105 0.273438,-2.134765 v -5.5 c 0,-0.9333704 0.04186,-1.5161018 -0.273438,-2.134766 C 18.654865,7.5609022 18.273009,7.1790745 17.802734,6.9394531 17.184098,6.6242173 16.601369,6.6660156 15.667969,6.6660156 Z m 0,1.6679688 h 5.5 c 0.9334,0 1.28259,0.04176 1.376953,0.089844 0.156925,0.079959 0.2853,0.2083622 0.365234,0.3652344 0.0481,0.094376 0.08984,0.4435831 0.08984,1.3769535 v 5.5 c 0,0.9335 -0.04176,1.284565 -0.08984,1.378906 -0.07995,0.156891 -0.208343,0.285288 -0.365234,0.365234 -0.0944,0.04809 -0.443553,0.08984 -1.376953,0.08984 h -5.5 c -0.9334302,0 -1.2844756,-0.04174 -1.3789065,-0.08984 -0.1568719,-0.07994 -0.2852821,-0.208322 -0.3652344,-0.365234 -0.048084,-0.09437 -0.089844,-0.445406 -0.089844,-1.378906 v -5.5 c 0,-0.9333704 0.041744,-1.2825501 0.089844,-1.3769535 C 8.5037682,8.632169 8.6321568,8.503777 8.7890625,8.4238281 8.8834603,8.375729 9.2345388,8.3339844 10.167969,8.3339844 Z"
       id="path1" />
  </g>
  <defs
     id="defs1">
    <clipPath
       id="clip0_116_1763">
      <rect
         width="20"
         height="20"
         fill="white"
         id="rect1" />
    </clipPath>
  </defs>
</svg>
