<?xml version="1.0" encoding="UTF-8" standalone="no"?>
<svg
   width="20"
   height="20"
   viewBox="0 0 20 20"
   fill="none"
   version="1.1"
   id="svg2"
   sodipodi:docname="eye.svg"
   inkscape:version="1.4.2 (f4327f4, 2025-05-13)"
   xmlns:inkscape="http://www.inkscape.org/namespaces/inkscape"
   xmlns:sodipodi="http://sodipodi.sourceforge.net/DTD/sodipodi-0.dtd"
   xmlns="http://www.w3.org/2000/svg"
   xmlns:svg="http://www.w3.org/2000/svg">
  <defs
     id="defs2" />
  <sodipodi:namedview
     id="namedview2"
     pagecolor="#ffffff"
     bordercolor="#000000"
     borderopacity="0.25"
     inkscape:showpageshadow="2"
     inkscape:pageopacity="0.0"
     inkscape:pagecheckerboard="0"
     inkscape:deskcolor="#d1d1d1"
     inkscape:zoom="40.35"
     inkscape:cx="9.9876084"
     inkscape:cy="10"
     inkscape:window-width="1920"
     inkscape:window-height="1009"
     inkscape:window-x="-8"
     inkscape:window-y="-8"
     inkscape:window-maximized="1"
     inkscape:current-layer="svg2" />
  <path
     style="baseline-shift:baseline;display:inline;overflow:visible;vector-effect:none;fill:#000000;stroke-linecap:round;stroke-linejoin:round;enable-background:accumulate;stop-color:#000000;stop-opacity:1;opacity:1"
     d="m 10,3.4160156 c -4.6953518,0 -7.6252741,4.0192331 -8.6171875,5.5898438 -0.1134953,0.1797084 -0.2393744,0.3812893 -0.2988281,0.640625 -0.062229,0.271501 -0.062229,0.4355306 0,0.7070316 0.059465,0.259236 0.1852993,0.460863 0.2988281,0.640625 C 2.37473,12.564768 5.3046517,16.583984 10,16.583984 c 4.695411,0 7.625292,-4.019184 8.617187,-5.589843 0.113587,-0.179838 0.239357,-0.381604 0.298829,-0.640625 0.06239,-0.27174 0.06239,-0.4352921 0,-0.7070316 -0.05946,-0.25912 -0.185275,-0.4608409 -0.298829,-0.640625 C 17.625296,7.4352169 14.695415,3.4160156 10,3.4160156 Z m 0,1.5 c 3.812985,0 6.465901,3.4912875 7.349609,4.890625 0.113447,0.1796159 0.101329,0.1577412 0.105469,0.1757813 -0.01459,-0.06354 -0.01459,0.098696 0,0.035156 -0.0041,0.01798 0.0079,-0.0038 -0.105469,0.175781 C 16.465905,11.5927 13.812989,15.083984 10,15.083984 c -3.8129117,0 -6.4658469,-3.491252 -7.3496094,-4.890625 -0.1134511,-0.179638 -0.1013941,-0.156065 -0.1054687,-0.173828 0.014509,0.0633 0.014509,-0.1004101 0,-0.037109 0.00409,-0.017824 -0.00802,0.00391 0.1054687,-0.1757813 C 3.5341572,8.4072713 6.1870918,4.9160156 10,4.9160156 Z"
     id="path1" />
  <path
     style="baseline-shift:baseline;display:inline;overflow:visible;vector-effect:none;fill:#000000;stroke-linecap:round;stroke-linejoin:round;enable-background:accumulate;stop-color:#000000;stop-opacity:1;opacity:1"
     d="m 10,6.75 c -1.7860201,0 -3.25,1.4639482 -3.25,3.25 0,1.786031 1.4639763,3.25 3.25,3.25 1.786038,0 3.25,-1.463962 3.25,-3.25 0,-1.7860591 -1.463966,-3.25 -3.25,-3.25 z m 0,1.5 c 0.975366,0 1.75,0.7745991 1.75,1.75 0,0.975362 -0.774638,1.75 -1.75,1.75 C 9.0246637,11.75 8.25,10.975369 8.25,10 8.25,9.0245918 9.0246601,8.25 10,8.25 Z"
     id="path2" />
</svg>
