<svg width="32" height="32" viewBox="0 0 32 32" fill="none" xmlns="http://www.w3.org/2000/svg">
  <path d="M17.712.129c1.785.004 2.691.014 3.474.036l.308.011c.355.013.706.03 1.13.048 1.688.08 2.84.347 3.851.74a7.7 7.7 0 0 1 2.813 1.835 7.8 7.8 0 0 1 1.83 2.819c.392 1.013.658 2.169.738 3.863.019.423.035.775.047 1.133l.01.308c.024.783.033 1.692.036 3.482l.002 1.187v2.084a126 126 0 0 1-.037 3.481l-.01.309c-.012.358-.028.71-.047 1.133-.08 1.694-.349 2.848-.74 3.863a7.8 7.8 0 0 1-1.83 2.82 7.8 7.8 0 0 1-2.812 1.834c-1.01.393-2.163.66-3.852.74l-1.13.047-.307.01c-.783.022-1.69.033-3.475.037l-1.184.001H14.45q-1.737.006-3.474-.036l-.308-.01q-.565-.02-1.13-.05c-1.689-.079-2.841-.346-3.854-.74a7.8 7.8 0 0 1-2.81-1.834 7.8 7.8 0 0 1-1.832-2.819C.65 25.447.384 24.292.304 22.598l-.047-1.133-.008-.309q-.045-1.74-.04-3.481v-3.271q-.006-1.74.035-3.482l.01-.308c.014-.358.03-.71.049-1.133.079-1.694.346-2.848.738-3.863a7.8 7.8 0 0 1 1.834-2.82A7.8 7.8 0 0 1 5.685.965C6.696.571 7.847.304 9.537.224c.422-.019.774-.035 1.13-.048l.308-.01A125 125 0 0 1 14.448.13zM16.08 8.084a7.93 7.93 0 0 0-5.611 2.33 7.965 7.965 0 0 0 0 11.25 7.925 7.925 0 0 0 11.222 0 7.966 7.966 0 0 0 0-11.25 7.93 7.93 0 0 0-5.611-2.33m0 3.182a4.75 4.75 0 0 1 3.367 1.398 4.77 4.77 0 0 1 1.395 3.375 4.8 4.8 0 0 1-1.394 3.375 4.76 4.76 0 0 1-3.367 1.399 4.76 4.76 0 0 1-3.366-1.398 4.78 4.78 0 0 1 0-6.75 4.76 4.76 0 0 1 3.366-1.399m8.333-5.569c-.526 0-1.031.21-1.403.583a1.992 1.992 0 0 0 1.403 3.395c.526 0 1.03-.21 1.403-.582a1.991 1.991 0 0 0-1.403-3.396" fill="#d0d5dd" style="stroke-width:1.19182"/>
</svg>
