<?xml version="1.0" encoding="UTF-8" standalone="no"?>
<svg
   width="20"
   height="20"
   viewBox="0 0 20 20"
   fill="none"
   version="1.1"
   id="svg1"
   sodipodi:docname="link.svg"
   inkscape:version="1.4.2 (f4327f4, 2025-05-13)"
   xmlns:inkscape="http://www.inkscape.org/namespaces/inkscape"
   xmlns:sodipodi="http://sodipodi.sourceforge.net/DTD/sodipodi-0.dtd"
   xmlns="http://www.w3.org/2000/svg"
   xmlns:svg="http://www.w3.org/2000/svg">
  <defs
     id="defs1" />
  <sodipodi:namedview
     id="namedview1"
     pagecolor="#ffffff"
     bordercolor="#000000"
     borderopacity="0.25"
     inkscape:showpageshadow="2"
     inkscape:pageopacity="0.0"
     inkscape:pagecheckerboard="0"
     inkscape:deskcolor="#d1d1d1"
     inkscape:zoom="40.35"
     inkscape:cx="9.9876084"
     inkscape:cy="10"
     inkscape:window-width="1920"
     inkscape:window-height="1009"
     inkscape:window-x="-8"
     inkscape:window-y="-8"
     inkscape:window-maximized="1"
     inkscape:current-layer="svg1" />
  <path
     style="baseline-shift:baseline;display:inline;overflow:visible;vector-effect:none;fill:#475467;stroke-linecap:round;stroke-linejoin:round;enable-background:accumulate;stop-color:#000000;stop-opacity:1;opacity:1"
     d="M 5.8339844,5 A 0.83333498,0.83333498 0 0 0 5,5.8339844 0.83333498,0.83333498 0 0 0 5.8339844,6.6660156 H 12.15625 L 5.2441406,13.578125 a 0.83333498,0.83333498 0 0 0 0,1.177734 0.83333498,0.83333498 0 0 0 1.1777344,0 L 13.333984,7.84375 v 6.322266 A 0.83333498,0.83333498 0 0 0 14.166016,15 0.83333498,0.83333498 0 0 0 15,14.166016 V 5.8339844 a 0.83333498,0.83333498 0 0 0 -0.244141,-0.2441407 0.83333498,0.83333498 0 0 0 0,-0.3457031 A 0.83333498,0.83333498 0 0 0 14.166016,5 Z"
     id="path1" />
</svg>
