<svg width="20" height="20" viewBox="0 0 20 20" fill="none" xmlns="http://www.w3.org/2000/svg">
<g clip-path="url(#clip0_112_6191)">
<path d="M1.52472 1.51654L2.39972 0.758203C3.40805 -0.25013 5.04139 -0.25013 6.04972 0.758203C6.07472 0.783203 7.61639 2.79154 7.61639 2.79154C8.56639 3.79154 8.56639 5.36654 7.61639 6.3582L6.64972 7.57487C7.86639 10.3332 9.75805 12.2332 12.4247 13.3665L13.6414 12.3915C14.6331 11.4332 16.2164 11.4332 17.2081 12.3915C17.2081 12.3915 19.2164 13.9332 19.2414 13.9582C20.2497 14.9665 20.2497 16.5999 19.2831 17.5665L18.4497 18.5249C17.4914 19.4832 16.1997 20.0082 14.7997 20.0082C8.43305 20.0082 -0.000278473 11.5665 -0.000278473 5.2082C-0.000278473 3.81654 0.524721 2.51654 1.52472 1.52487V1.51654ZM14.7997 18.3332C15.7497 18.3332 16.6247 17.9832 17.2247 17.3749L18.0581 16.4165C18.3997 16.0749 18.4164 15.5165 18.0914 15.1582C18.0914 15.1582 16.0997 13.6249 16.0747 13.5999C15.7331 13.2582 15.1331 13.2582 14.7831 13.5999C14.7581 13.6249 13.0831 14.9665 13.0831 14.9665C12.8497 15.1499 12.5414 15.1999 12.2664 15.0915C8.81639 13.7749 6.34139 11.3082 4.91639 7.74987C4.80805 7.47487 4.84972 7.1582 5.04139 6.91654C5.04139 6.91654 6.38305 5.2332 6.39972 5.21654C6.75805 4.8582 6.75805 4.2832 6.39972 3.92487C6.37472 3.89987 4.84139 1.9082 4.84139 1.9082C4.48305 1.5832 3.92472 1.59154 3.54139 1.97487L2.66639 2.7332C2.02472 3.37487 1.66639 4.24987 1.66639 5.19987C1.66639 10.9999 9.80805 18.3332 14.7997 18.3332Z" fill="#25575A"/>
</g>
<defs>
<clipPath id="clip0_112_6191">
<rect width="20" height="20" fill="white" transform="matrix(-1 0 0 1 20 0)"/>
</clipPath>
</defs>
</svg>
