<?xml version="1.0" encoding="UTF-8" standalone="no"?>
<svg
   width="20"
   height="20"
   viewBox="0 0 20 20"
   fill="none"
   version="1.1"
   id="svg1"
   sodipodi:docname="play.svg"
   inkscape:version="1.4.2 (f4327f4, 2025-05-13)"
   xmlns:inkscape="http://www.inkscape.org/namespaces/inkscape"
   xmlns:sodipodi="http://sodipodi.sourceforge.net/DTD/sodipodi-0.dtd"
   xmlns="http://www.w3.org/2000/svg"
   xmlns:svg="http://www.w3.org/2000/svg">
  <defs
     id="defs1" />
  <sodipodi:namedview
     id="namedview1"
     pagecolor="#ffffff"
     bordercolor="#000000"
     borderopacity="0.25"
     inkscape:showpageshadow="2"
     inkscape:pageopacity="0.0"
     inkscape:pagecheckerboard="0"
     inkscape:deskcolor="#d1d1d1"
     inkscape:zoom="40.35"
     inkscape:cx="9.9876084"
     inkscape:cy="10"
     inkscape:window-width="1920"
     inkscape:window-height="1009"
     inkscape:window-x="-8"
     inkscape:window-y="-8"
     inkscape:window-maximized="1"
     inkscape:current-layer="svg1" />
  <path
     style="baseline-shift:baseline;display:inline;overflow:visible;vector-effect:none;fill:#344054;stroke-linecap:round;stroke-linejoin:round;enable-background:accumulate;stop-color:#000000;stop-opacity:1;opacity:1"
     d="M 4.9003906,1.5605469 C 4.4144356,1.5895567 3.9636188,1.8304907 3.6699219,2.21875 3.4392665,2.5236388 3.3845882,2.8480506 3.3574219,3.1445313 3.3302556,3.4410119 3.3339844,3.7535531 3.3339844,4.1582031 V 15.841797 c 0,0.40465 -0.00373,0.717181 0.023437,1.013672 0.027165,0.296491 0.081877,0.62088 0.3125,0.925781 0.2937436,0.388261 0.7448095,0.629051 1.2304687,0.658203 0.3814898,0.02268 0.681607,-0.110095 0.9433594,-0.251953 0.2617524,-0.141858 0.5207081,-0.318453 0.8574219,-0.542969 l 8.7636721,-5.841797 c 0.556342,-0.370961 0.984912,-0.553366 1.238281,-1.164062 0.169217,-0.408358 0.169238,-0.8689747 0,-1.2773439 C 16.449755,8.7507074 16.021247,8.5681975 15.464844,8.1972656 L 6.7011719,2.3554688 C 6.3644819,2.1310088 6.1055031,1.9543541 5.84375,1.8125 5.5819969,1.6706459 5.2820125,1.5377616 4.9003906,1.5605469 Z M 5,3.2246094 c -0.1024219,0.00612 -0.093956,-0.023751 0.050781,0.054687 0.1447369,0.078438 0.3898726,0.2384306 0.7265625,0.4628906 L 14.541016,9.5839844 C 15.097413,9.9549125 15.223432,10.143081 15.164063,10 c 0.05937,-0.1430965 -0.06659,0.04498 -0.623047,0.416016 L 5.7773437,16.257812 C 5.4406775,16.482297 5.1955188,16.644215 5.0507812,16.722656 4.9060437,16.801098 4.8977102,16.769309 5,16.775391 c 0.055828,0.07608 0.032217,0.08946 0.017578,-0.07031 C 5.0025558,16.541119 5,16.246447 5,15.841797 V 4.1582031 C 5,3.7535531 5.0025569,3.4588563 5.0175781,3.2949219 5.0325993,3.1309875 5.0619054,3.1427805 5,3.2246094 Z"
     id="path1" />
</svg>
