<svg viewBox="0 0 96 24"
    xmlns="http://www.w3.org/2000/svg">
    <path fill-rule="evenodd" clip-rule="evenodd" d="M0.0513306 4.79736V19.181L4.83996 23.9753V9.59188H14.4171L9.62836 4.79736H0.0513306Z" fill="#4A51DD"></path>
    <path fill-rule="evenodd" clip-rule="evenodd" d="M4.83997 14.3864H14.417V0.00280762L19.2056 4.79732V19.1809H9.62836L4.83997 14.3864Z" fill="#4ED89D"></path>
    <path d="M93.7337 19.1802L93.5287 18.0502H93.4256C93.2207 18.3105 92.9745 18.5364 92.6871 18.7284C92.0304 19.1665 91.2506 19.3859 90.3478 19.3859C88.9796 19.3859 87.8335 18.8826 86.91 17.8758C85.9865 16.8687 85.5248 15.5572 85.5248 13.9409C85.5248 12.3247 85.9865 11.013 86.91 10.0061C87.8335 8.99931 88.9796 8.49602 90.3478 8.49602C91.1682 8.49602 91.9209 8.72192 92.6052 9.17397C92.892 9.36574 93.1318 9.58504 93.3232 9.83147H93.4256V4.79736H95.9911V19.1802H93.7337ZM88.8288 16.2112C89.3212 16.7523 89.9643 17.0229 90.7583 17.0229C91.5516 17.0229 92.1947 16.7523 92.6871 16.2112C93.1795 15.6701 93.4256 14.9134 93.4256 13.9407C93.4256 12.9683 93.1795 12.2113 92.6871 11.6704C92.1947 11.1294 91.5516 10.8587 90.7583 10.8587C89.9643 10.8587 89.3212 11.1294 88.8288 11.6704C88.3365 12.2115 88.0903 12.9683 88.0903 13.9407C88.0903 14.9134 88.3365 15.6701 88.8288 16.2112Z" fill="white"></path>
    <path d="M73.8281 19.1803V8.70124H76.1875L76.393 9.72858H76.4955C76.6598 9.52313 76.8925 9.31751 77.1934 9.11207C77.8224 8.70124 78.548 8.49585 79.3684 8.49585C80.5587 8.49585 81.5405 8.9035 82.3138 9.71832C83.0865 10.5334 83.4729 11.5983 83.4729 12.9132V19.18H80.908V13.1186C80.908 12.4475 80.6995 11.903 80.2819 11.4851C79.8649 11.0672 79.3207 10.8583 78.6505 10.8583C77.9803 10.8583 77.4361 11.0672 77.0191 11.4851C76.6015 11.903 76.393 12.4472 76.393 13.1186V19.18H73.8281V19.1803Z" fill="white"></path>
    <path d="M68.6972 16.0984H71.3651C71.2968 16.3587 71.1631 16.6497 70.9652 16.9717C70.7668 17.2937 70.4864 17.6499 70.1236 18.0403C69.7608 18.4306 69.2649 18.7526 68.6359 19.0059C68.0063 19.2593 67.309 19.386 66.5428 19.386C64.9967 19.386 63.7211 18.8758 62.7151 17.8551C61.7098 16.8346 61.2074 15.5299 61.2074 13.941C61.2074 12.3521 61.7098 11.0474 62.7151 10.027C63.7211 9.00646 64.9967 8.49609 66.5428 8.49609C67.9792 8.49609 69.1931 8.99939 70.1855 10.0062C71.1767 11.013 71.6732 12.256 71.6732 13.7353C71.6732 13.8588 71.6526 14.1054 71.6113 14.475L71.5701 14.7629H63.7717C63.8813 15.5023 64.1893 16.0984 64.6952 16.5504C65.2017 17.0025 65.8172 17.2286 66.5422 17.2286C67.0893 17.2286 67.5546 17.1089 67.938 16.869C68.3208 16.6294 68.5741 16.3726 68.6972 16.0986V16.0984ZM63.7723 13.0164H69.1077C68.9846 12.3179 68.7007 11.7495 68.256 11.3112C67.812 10.8727 67.2401 10.6534 66.5428 10.6534C65.8036 10.6534 65.1982 10.8691 64.7264 11.3007C64.2547 11.7322 63.9366 12.3041 63.7723 13.0162V13.0164Z" fill="white"></path>
    <path d="M50.4024 10.0267C51.4077 9.00622 52.6834 8.49585 54.2294 8.49585C55.7754 8.49585 57.0511 9.00622 58.0564 10.0267C59.0624 11.0472 59.5654 12.3518 59.5654 13.9408C59.5654 15.5297 59.0624 16.8343 58.0564 17.8548C57.0511 18.8753 55.7754 19.3857 54.2294 19.3857C52.6834 19.3857 51.4077 18.8756 50.4024 17.8548C49.3964 16.8343 48.894 15.5297 48.894 13.9408C48.894 12.3518 49.3964 11.0472 50.4024 10.0267ZM52.2593 16.1598C52.7929 16.7351 53.4496 17.0227 54.2294 17.0227C55.0092 17.0227 55.6659 16.7351 56.1995 16.1598C56.7331 15.5846 56.9999 14.8449 56.9999 13.9408C56.9999 13.0366 56.7331 12.297 56.1995 11.7217C55.6659 11.1465 55.0092 10.8588 54.2294 10.8588C53.4496 10.8588 52.7929 11.1467 52.2593 11.7217C51.7263 12.297 51.459 13.0366 51.459 13.9408C51.459 14.8449 51.7257 15.5846 52.2593 16.1598Z" fill="white"></path>
    <path d="M41.9164 19.1802V8.70117H44.0713L44.2764 9.62579H44.379C44.5023 9.46139 44.6527 9.31084 44.8305 9.17374C45.2548 8.85879 45.7199 8.70117 46.226 8.70117H48.2781V11.1669H46.4311C45.1315 11.1669 44.4816 11.8175 44.4816 13.1188V19.1802H41.9164Z" fill="white"></path>
    <path d="M28.7826 19.1802V4.79736H35.2469C36.6014 4.79736 37.6925 5.2355 38.52 6.11229C39.3477 6.98909 39.7616 8.16008 39.7616 9.62579C39.7616 11.0915 39.348 12.2628 38.52 13.1393C37.6923 14.0158 36.6012 14.4543 35.2469 14.4543H31.4505V19.18H28.7826V19.1802ZM31.4505 11.8861H35.1443C35.7328 11.8861 36.2047 11.6873 36.5602 11.2901C36.916 10.893 37.0938 10.3382 37.0938 9.62579C37.0938 8.91345 36.916 8.35868 36.5602 7.96153C36.2045 7.56409 35.7328 7.36554 35.1443 7.36554H31.4505V11.8859V11.8861Z" fill="white"></path>

</svg>