<svg width="20" height="20" viewBox="0 0 20 20" fill="none" xmlns="http://www.w3.org/2000/svg">
<g clip-path="url(#clip0_327_14279)">
<path d="M19.9617 4.61719L12.9467 11.6322C12.1645 12.4124 11.1048 12.8506 10 12.8506C8.89521 12.8506 7.83552 12.4124 7.05333 11.6322L0.0383333 4.61719C0.0266667 4.74885 0 4.86802 0 4.99885V14.9989C0.00132321 16.1035 0.440735 17.1626 1.22185 17.9437C2.00296 18.7248 3.062 19.1642 4.16667 19.1655H15.8333C16.938 19.1642 17.997 18.7248 18.7782 17.9437C19.5593 17.1626 19.9987 16.1035 20 14.9989V4.99885C20 4.86802 19.9733 4.74885 19.9617 4.61719Z" fill="white"/>
<path d="M11.7685 10.4537L19.3801 2.8412C19.0114 2.2298 18.4913 1.72373 17.8701 1.37181C17.2489 1.01988 16.5474 0.833982 15.8335 0.832031H4.16678C3.4528 0.833982 2.75137 1.01988 2.13014 1.37181C1.50891 1.72373 0.988849 2.2298 0.620117 2.8412L8.23178 10.4537C8.70143 10.9215 9.33727 11.1841 10.0001 11.1841C10.663 11.1841 11.2988 10.9215 11.7685 10.4537Z" fill="white"/>
</g>
<defs>
<clipPath id="clip0_327_14279">
<rect width="20" height="20" fill="white"/>
</clipPath>
</defs>
</svg>
