<svg width="20" height="20" viewBox="0 0 20 20" fill="none" xmlns="http://www.w3.org/2000/svg">
<g clip-path="url(#clip0_327_14275)">
<path d="M0 6.04068C0 4.86234 0.47 3.74151 1.3275 2.88401C3.23167 0.979844 6.61583 0.0273438 10 0.0273438C13.3842 0.0273438 16.7683 0.979844 18.6725 2.88484C19.5292 3.74151 20.0008 4.86318 20 6.04151C20 7.17818 19.3817 8.15734 18.4708 8.69984L16.3167 5.64318C15.83 4.95318 15.1533 4.41484 14.36 4.12401C13.3442 3.75151 11.8017 3.33234 10 3.33234C8.19833 3.33234 6.65583 3.75151 5.64 4.12401C4.84667 4.41484 4.17 4.95234 3.68333 5.64318L1.52917 8.69984C0.618333 8.15734 0 7.17734 0 6.04068ZM12.5 12.499C12.5 13.8773 11.3783 14.999 10 14.999C8.62167 14.999 7.5 13.8773 7.5 12.499C7.5 11.1207 8.62167 9.99901 10 9.99901C11.3783 9.99901 12.5 11.1207 12.5 12.499ZM19.9983 16.8298C19.9658 18.6057 18.4517 19.999 16.6758 19.999H3.32417C1.57917 19.999 0.0333333 18.5748 0.00166667 16.8298C-0.0241667 15.4273 0.278333 14.0265 0.874167 12.7582C1.00333 12.484 1.16333 12.2248 1.33333 11.974L4.76417 6.89484C5.17 6.29484 5.75417 5.84234 6.44 5.60818C7.30917 5.31068 8.56167 4.99901 10 4.99901C11.4308 4.99901 12.6875 5.31234 13.56 5.61068C14.2458 5.84568 14.8325 6.29734 15.2383 6.89818L18.9217 12.3515C19.6533 13.7232 20.0267 15.2757 19.9983 16.8298ZM14.1667 12.499C14.1667 10.2015 12.2975 8.33234 10 8.33234C7.7025 8.33234 5.83333 10.2015 5.83333 12.499C5.83333 14.7965 7.7025 16.6657 10 16.6657C12.2975 16.6657 14.1667 14.7965 14.1667 12.499Z" fill="white"/>
</g>
<defs>
<clipPath id="clip0_327_14275">
<rect width="20" height="20" fill="white"/>
</clipPath>
</defs>
</svg>
