<svg width="20" height="20" viewBox="0 0 20 20" fill="none" xmlns="http://www.w3.org/2000/svg">
<path d="M4.41406 6.86283C4.45312 6.8241 4.49544 6.79183 4.54102 6.76601C4.58659 6.74019 4.63542 6.71437 4.6875 6.68855C4.72656 6.66273 4.77539 6.64659 4.83398 6.64013C4.89258 6.63368 4.94792 6.63045 5 6.63045C5.05208 6.63045 5.10742 6.63368 5.16602 6.64013C5.22461 6.64659 5.27344 6.66273 5.3125 6.68855C5.36458 6.71437 5.41341 6.74019 5.45898 6.76601C5.50456 6.79183 5.54688 6.8241 5.58594 6.86283L9.41406 10.6584C9.45312 10.6972 9.49544 10.7294 9.54102 10.7552C9.58659 10.7811 9.63542 10.8069 9.6875 10.8327C9.73958 10.8585 9.79167 10.8747 9.84375 10.8811C9.89583 10.8876 9.94792 10.8908 10 10.8908C10.0521 10.8908 10.1074 10.8876 10.166 10.8811C10.2246 10.8747 10.2734 10.8585 10.3125 10.8327C10.3646 10.8069 10.4134 10.7811 10.459 10.7552C10.5046 10.7294 10.5469 10.6972 10.5859 10.6584L14.4141 6.86283C14.4531 6.8241 14.4954 6.79183 14.541 6.76601C14.5866 6.74019 14.6354 6.71437 14.6875 6.68855C14.7396 6.66273 14.7917 6.64659 14.8438 6.64013C14.8958 6.63368 14.9479 6.63045 15 6.63045C15.0521 6.63045 15.1074 6.63368 15.166 6.64013C15.2246 6.64659 15.2734 6.66273 15.3125 6.68855C15.3646 6.71437 15.4134 6.74019 15.459 6.76601C15.5046 6.79183 15.5469 6.8241 15.5859 6.86283C15.6641 6.9403 15.7259 7.03067 15.7715 7.13395C15.8171 7.23723 15.8398 7.34051 15.8398 7.44379C15.8398 7.55998 15.8171 7.66649 15.7715 7.76332C15.7259 7.86014 15.6641 7.94729 15.5859 8.02475L11.7578 11.8203C11.5234 12.0527 11.2533 12.2335 10.9473 12.3626C10.6413 12.4917 10.3255 12.5562 10 12.5562C9.67448 12.5562 9.35872 12.4917 9.05273 12.3626C8.74674 12.2335 8.47656 12.0527 8.24219 11.8203L4.41406 8.02475C4.33594 7.94729 4.27409 7.86014 4.22852 7.76332C4.18294 7.66649 4.16016 7.55998 4.16016 7.44379C4.16016 7.34051 4.18294 7.23723 4.22852 7.13395C4.27409 7.03067 4.33594 6.9403 4.41406 6.86283Z" fill="#25575A"/>
</svg>
