<svg width="50" height="50" viewBox="0 0 50 50" fill="none" xmlns="http://www.w3.org/2000/svg">
<path d="M25.0003 45.8333C36.5063 45.8333 45.8337 36.5059 45.8337 25C45.8337 13.494 36.5063 4.16663 25.0003 4.16663C13.4944 4.16663 4.16699 13.494 4.16699 25C4.16699 36.5059 13.4944 45.8333 25.0003 45.8333Z" stroke="white" stroke-width="1.66667" stroke-linecap="round" stroke-linejoin="round"/>
<path d="M19.792 18.6777C19.792 17.6834 19.792 17.1862 19.9998 16.9087C20.1809 16.6668 20.4581 16.5155 20.7594 16.4939C21.1053 16.4692 21.5235 16.7381 22.3599 17.2758L32.1945 23.598C32.9203 24.0646 33.2832 24.2979 33.4085 24.5945C33.5181 24.8537 33.5181 25.1462 33.4085 25.4054C33.2832 25.702 32.9203 25.9353 32.1945 26.4019L22.3599 32.7241C21.5235 33.2618 21.1053 33.5307 20.7594 33.506C20.4581 33.4845 20.1809 33.3331 19.9998 33.0913C19.792 32.8137 19.792 32.3165 19.792 31.3222V18.6777Z" stroke="white" stroke-width="1.66667" stroke-linecap="round" stroke-linejoin="round"/>
</svg>
