<svg width="64" height="16" viewBox="0 0 64 16" fill="none" xmlns="http://www.w3.org/2000/svg">
  <g clip-path="url(#a)" fill="#fff">
    <path fill-rule="evenodd" clip-rule="evenodd" d="M.034 3.198v9.59l3.193 3.195V6.396H9.61L6.42 3.198z"/>
    <path fill-rule="evenodd" clip-rule="evenodd" d="M3.227 9.59H9.61V.003l3.193 3.196v9.59H6.419z"/>
    <path d="m62.49 12.787-.137-.754h-.07q-.204.261-.492.453-.655.438-1.56.438a2.98 2.98 0 0 1-2.29-1.007q-.925-1.007-.924-2.623 0-1.617.923-2.623a2.98 2.98 0 0 1 2.292-1.007q.82 0 1.505.452.286.192.478.438h.069V3.198h1.71v9.589zm-3.27-1.98q.491.542 1.286.542.793 0 1.285-.542.493-.54.493-1.513t-.492-1.514q-.494-.54-1.286-.54-.795 0-1.287.54-.492.542-.492 1.514 0 .973.492 1.513m-10 1.98V5.8h1.573l.137.685h.068q.165-.205.465-.411.63-.411 1.45-.411 1.19 0 1.964.815.773.814.773 2.13v4.178h-1.71v-4.04q0-.671-.418-1.09-.417-.417-1.087-.417t-1.088.418-.417 1.089v4.04zm-3.421-2.055h1.779a2.2 2.2 0 0 1-.267.583q-.199.322-.56.712-.364.39-.993.644-.63.252-1.395.253-1.545 0-2.552-1.02-1.005-1.02-1.005-2.61t1.005-2.61 2.552-1.02q1.436 0 2.428 1.007t.992 2.486q0 .123-.041.493l-.028.192h-5.199q.11.74.616 1.192.507.452 1.231.452.547 0 .931-.24.383-.239.506-.514m-3.283-2.054h3.557q-.123-.699-.568-1.137-.444-.44-1.142-.439-.74 0-1.211.432-.473.431-.636 1.143m-8.913-1.993q1.005-1.02 2.55-1.02 1.547 0 2.552 1.02t1.006 2.61-1.006 2.61q-1.005 1.02-2.551 1.02t-2.551-1.02-1.006-2.61 1.006-2.61m1.238 4.09a1.72 1.72 0 0 0 1.313.575q.78 0 1.313-.576Q38 10.2 38 9.293q0-.903-.534-1.478a1.72 1.72 0 0 0-1.313-.576q-.78 0-1.313.576-.534.575-.534 1.479t.534 1.48m-6.896 2.013V5.8h1.437l.137.616h.068q.124-.165.301-.301.425-.315.93-.315h1.368v1.644h-1.23q-1.3 0-1.3 1.3v4.042zm-8.755 0V3.198h4.309q1.354 0 2.182.877.828.876.828 2.342T25.68 8.76q-.829.876-2.182.876h-2.531v3.15zm1.778-4.863h2.463q.588 0 .944-.397.355-.397.355-1.11 0-.712-.355-1.11-.357-.396-.944-.397h-2.463z"/>
  </g> 
</svg>
