<svg width="22" height="22" viewBox="0 0 22 22" fill="none" xmlns="http://www.w3.org/2000/svg">
<path fill-rule="evenodd" clip-rule="evenodd" d="M16.6321 3.32696C15.5596 3.51774 14.1137 3.99776 12.0845 4.67417L7.49079 6.20539C5.8591 6.74929 4.67725 7.14382 3.8425 7.49886C2.96977 7.87005 2.65931 8.12879 2.55848 8.30223C2.24791 8.83645 2.24791 9.49624 2.55848 10.0305C2.65931 10.2039 2.96977 10.4626 3.8425 10.8338C4.67725 11.1889 5.8591 11.5834 7.49079 12.1273C7.51655 12.1359 7.54199 12.1444 7.56712 12.1527C7.91511 12.2685 8.20261 12.3641 8.45381 12.4954L13.3336 7.66947C13.6101 7.39596 14.056 7.39843 14.3296 7.67499C14.6031 7.95155 14.6006 8.39747 14.324 8.67098L9.46576 13.4757C9.61722 13.7432 9.71975 14.0514 9.84632 14.4319C9.85468 14.457 9.86314 14.4825 9.87173 14.5082C10.4156 16.1399 10.8102 17.3218 11.1652 18.1565C11.5364 19.0293 11.7951 19.3397 11.9686 19.4405C12.5028 19.7511 13.1626 19.7511 13.6968 19.4405C13.8702 19.3397 14.129 19.0293 14.5002 18.1565C14.8552 17.3218 15.2497 16.1399 15.7936 14.5082L17.3249 9.91457C18.0013 7.88536 18.4813 6.43945 18.6721 5.36697C18.8638 4.28938 18.7173 3.83164 18.4423 3.5567C18.1674 3.28176 17.7096 3.13527 16.6321 3.32696ZM16.3854 1.94017C17.579 1.72782 18.6541 1.77649 19.4383 2.5607C20.2225 3.3449 20.2712 4.41998 20.0589 5.61366C19.8478 6.80014 19.3331 8.34416 18.6815 10.299L17.1186 14.9875C16.5884 16.5783 16.1763 17.8144 15.7964 18.7078C15.4298 19.5696 15.0229 20.2989 14.4047 20.6583C13.4328 21.2233 12.2325 21.2233 11.2606 20.6583C10.6425 20.2989 10.2355 19.5696 9.869 18.7078C9.48903 17.8144 9.07701 16.5784 8.54675 14.9876L8.53545 14.9537C8.34968 14.3964 8.29305 14.2452 8.21282 14.1253C8.12303 13.9912 8.00782 13.876 7.8737 13.7862C7.75386 13.706 7.60268 13.6494 7.04536 13.4636L7.01141 13.4523C5.42063 12.922 4.18457 12.51 3.2912 12.13C2.42946 11.7635 1.70011 11.3565 1.34075 10.7384C0.775741 9.76651 0.775741 8.56618 1.34075 7.5943C1.70011 6.97615 2.42946 6.56919 3.2912 6.20267C4.18458 5.8227 5.42066 5.41067 7.01147 4.88041L11.7 3.31755C13.6549 2.66592 15.1989 2.15123 16.3854 1.94017Z" fill="white"/>
</svg>
