<svg width="22" height="22" viewBox="0 0 22 22" fill="none" xmlns="http://www.w3.org/2000/svg">
<path fill-rule="evenodd" clip-rule="evenodd" d="M11.0007 14.4382C11.3803 14.4382 11.6882 14.1303 11.6882 13.7507V3.69247L13.2287 5.48974C13.4758 5.77802 13.9098 5.81141 14.1981 5.56431C14.4864 5.3172 14.5197 4.88318 14.2726 4.5949L11.5226 1.38657C11.392 1.23418 11.2014 1.14648 11.0007 1.14648C10.8 1.14648 10.6093 1.23418 10.4787 1.38657L7.72866 4.5949C7.48156 4.88318 7.51495 5.3172 7.80323 5.56431C8.09152 5.81141 8.52554 5.77802 8.77264 5.48974L10.3132 3.69247L10.3132 13.7507C10.3132 14.1303 10.621 14.4382 11.0007 14.4382Z" fill="#002266"/>
<path d="M14.6673 8.25065C14.0236 8.25065 13.7018 8.25065 13.4706 8.40512C13.3705 8.47201 13.2845 8.55796 13.2177 8.65807C13.0632 8.88927 13.0632 9.2111 13.0632 9.85478L13.0632 13.7507C13.0632 14.8897 12.1398 15.8132 11.0007 15.8132C9.8616 15.8132 8.93819 14.8897 8.93819 13.7507L8.93819 9.85486C8.93819 9.21111 8.93819 8.88923 8.78369 8.65802C8.71681 8.55795 8.63089 8.47202 8.53082 8.40515C8.29961 8.25065 7.97773 8.25065 7.33398 8.25065C4.74126 8.25065 3.4449 8.25065 2.63944 9.05611C1.83398 9.86156 1.83398 11.1577 1.83398 13.7504V14.6671C1.83398 17.2598 1.83398 18.5562 2.63944 19.3617C3.4449 20.1671 4.74126 20.1671 7.33398 20.1671H14.6673C17.26 20.1671 18.5564 20.1671 19.3619 19.3617C20.1673 18.5562 20.1673 17.2598 20.1673 14.6671V13.7504C20.1673 11.1577 20.1673 9.86156 19.3619 9.05611C18.5564 8.25065 17.26 8.25065 14.6673 8.25065Z" fill="#002266"/>
</svg>
